<svg version="1.1" id="Layer_1" xmlns="http://www.w3.org/2000/svg" xmlns:xlink="http://www.w3.org/1999/xlink" x="0px" y="0px"
	 width="100%" viewBox="0 0 925 385" enable-background="new 0 0 925 385" xml:space="preserve">
<path fill="#FBFEE9" opacity="1.000000" stroke="none" 
	d="
M711.000000,386.000000 
	C474.000031,386.000000 237.500092,386.000000 1.000095,386.000000 
	C1.000063,257.666718 1.000063,129.333466 1.000032,1.000147 
	C309.333221,1.000098 617.666443,1.000098 925.999756,1.000049 
	C925.999817,129.333191 925.999817,257.666382 925.999878,385.999786 
	C854.500000,386.000000 783.000000,386.000000 711.000000,386.000000 
M483.117920,323.776672 
	C482.976715,323.378601 482.835510,322.980499 482.694305,322.582428 
	C482.114258,322.949310 481.534180,323.316223 480.891205,323.798553 
	C480.891205,323.798553 480.678650,323.956970 480.166016,324.161621 
	C480.081787,324.325226 479.997589,324.488800 479.289459,324.963562 
	C476.507385,326.941406 473.725311,328.919281 470.091339,331.124481 
	C465.435516,331.790985 463.653473,329.667450 464.264587,325.165161 
	C464.397705,324.184631 464.393707,323.185516 465.120117,321.848114 
	C466.070801,319.880737 467.021515,317.913391 467.972198,315.946045 
	C467.608337,315.775208 467.244476,315.604370 466.880646,315.433533 
	C465.925537,317.274384 464.970459,319.115265 463.322937,321.106659 
	C462.945038,323.134644 462.244781,325.163483 462.250092,327.190460 
	C462.265656,333.149658 465.341919,334.698517 471.716919,332.016449 
	C474.513062,330.216461 477.309204,328.416443 480.640137,326.321777 
	C480.883698,326.004730 481.127258,325.687683 481.841705,325.197662 
	C482.017426,324.922363 482.193115,324.647064 483.117920,323.776672 
M478.428955,301.461243 
	C479.287720,301.301727 480.146515,301.142212 481.936096,300.988617 
	C484.735016,300.991333 487.575867,300.709900 490.315643,301.113831 
	C491.737396,301.323395 492.980469,302.745239 494.180847,304.267365 
	C490.855377,309.548798 487.529877,314.830231 484.204376,320.111664 
	C484.827393,320.528534 485.450439,320.945404 486.073456,321.362274 
	C490.654602,314.550995 495.235748,307.739685 500.776611,300.963593 
	C517.479187,300.963959 534.181702,300.964325 551.108215,301.641602 
	C557.735901,310.238861 564.420532,318.792938 570.976318,327.444611 
	C578.635620,337.552521 586.011536,347.883514 593.967834,357.748779 
	C595.123657,359.181976 600.854248,359.272186 601.025208,358.782471 
	C602.407043,354.822449 605.443359,356.055084 607.961792,356.040771 
	C620.764832,355.967865 633.568481,356.007172 646.371948,356.007172 
	C648.482300,356.007172 650.592590,356.007172 652.650146,356.007172 
	C653.042419,350.653381 653.017029,350.712128 648.569336,348.791473 
	C647.237061,348.216125 645.965393,347.351929 644.878723,346.381683 
	C639.500000,341.579041 638.169678,329.552551 641.227966,321.211609 
	C643.623535,314.678223 645.038330,307.785187 647.839539,301.018311 
	C696.754761,301.010162 745.669922,301.004517 794.585144,300.990814 
	C800.979370,300.989044 800.983887,300.969940 801.001587,294.587036 
	C801.057129,274.623474 801.108948,254.659897 801.954956,234.687973 
	C802.889038,235.416138 804.284729,235.949570 804.686584,236.902267 
	C809.220398,247.649338 813.635620,258.446991 818.012817,269.259369 
	C821.284973,277.342255 824.427185,285.477692 827.677124,293.569672 
	C832.977356,306.766663 838.564026,319.855316 843.550171,333.169281 
	C846.556274,341.195862 845.113953,343.960541 838.645569,348.903595 
	C836.997192,350.163330 836.462158,352.879944 835.006836,355.726807 
	C859.932556,355.726807 883.333801,355.726807 906.689148,355.726807 
	C907.047058,353.444641 907.365662,351.413727 907.632629,349.711639 
	C905.781860,348.906128 903.790344,348.589447 902.623657,347.437408 
	C897.280518,342.161377 890.664795,337.451416 887.268555,331.068298 
	C878.707336,314.977997 871.554871,298.131927 864.004333,281.513092 
	C861.004883,274.911255 858.477722,268.095978 855.677063,261.402344 
	C852.300110,253.331528 848.750916,245.331009 845.487610,237.215103 
	C843.330505,231.850159 841.794739,226.229828 839.538330,220.911545 
	C835.535461,211.476898 831.054871,202.244995 827.047180,192.812271 
	C824.338745,186.437531 822.301880,179.777847 819.602905,173.398651 
	C815.018066,162.562149 809.939758,151.932190 805.456360,141.055679 
	C800.969666,130.171341 797.140564,119.016518 792.683716,108.119133 
	C788.622192,98.188339 784.019531,88.480278 779.821533,78.603439 
	C777.284302,72.634117 775.126770,66.504601 772.684814,60.493290 
	C769.458191,52.550472 766.297852,44.571159 762.716125,36.788303 
	C761.708923,34.599579 759.213257,31.422276 757.594604,31.533220 
	C754.111023,31.771997 750.690857,33.712597 747.358337,35.209564 
	C741.047974,38.044140 734.976624,41.491993 728.503357,43.856754 
	C723.390808,45.724415 723.353516,45.351616 726.033081,50.194809 
	C729.746582,56.906937 733.817383,63.721973 731.083130,71.974373 
	C729.807129,75.825500 728.475464,79.665855 726.972534,83.432693 
	C722.411804,94.863503 717.768066,106.261284 713.131714,117.661797 
	C709.472046,126.660690 705.716675,135.621063 702.109192,144.640686 
	C696.746460,158.048965 691.476868,171.494476 685.210327,184.968582 
	C657.403320,184.944138 629.596252,184.919708 601.894592,183.977722 
	C601.913635,170.317398 601.828796,156.655991 601.973938,142.997009 
	C602.246094,117.378677 602.305420,91.750229 603.158386,66.149490 
	C603.541077,54.663780 607.037842,44.145180 619.798218,40.360596 
	C619.798218,38.263668 619.798218,36.474434 619.798218,34.485458 
	C600.541138,34.485458 581.497070,34.485458 562.756592,34.485458 
	C560.572693,39.588772 563.768494,41.791988 567.270264,42.766972 
	C578.825317,45.984180 584.335754,54.535713 588.122864,64.942764 
	C594.024658,81.160675 593.101562,98.229874 593.790527,114.957863 
	C594.749573,138.241150 594.129089,161.589493 593.225464,184.962509 
	C565.093567,184.949844 536.961609,184.937164 508.657013,184.274612 
	C505.036835,179.421600 501.374634,174.599213 497.807495,169.707520 
	C493.676453,164.042526 489.810974,158.174774 485.504364,152.648941 
	C478.295502,143.399307 470.723969,134.432404 463.509705,125.186859 
	C459.290436,119.779678 455.645477,113.923935 451.418732,108.523125 
	C446.883026,102.727509 441.800690,97.360161 437.254578,91.572121 
	C428.493469,80.417572 419.942200,69.098206 411.303406,57.847580 
	C407.525970,52.928047 403.296783,48.283707 400.090210,43.016731 
	C396.572327,37.238434 392.820618,33.537865 385.292236,33.981937 
	C374.671204,34.608437 363.985565,34.131466 353.327637,34.150223 
	C351.714386,34.153061 350.101349,34.285404 348.395142,34.362030 
	C348.395142,36.733379 348.395142,38.662201 348.395142,39.298790 
	C353.830963,42.667641 358.493530,45.557285 363.087860,49.249775 
	C363.995605,50.166931 364.903320,51.084087 366.216125,52.499092 
	C366.502838,53.282715 366.789551,54.066338 366.776489,55.532719 
	C367.832611,58.688057 368.888733,61.843399 370.219513,65.792915 
	C370.742798,72.528099 371.266083,79.263283 371.097748,86.021088 
	C370.449890,86.573006 369.802063,87.124924 369.154205,87.676842 
	C370.049561,88.451057 370.944916,89.225273 371.996552,90.925385 
	C372.015594,94.090935 372.045654,97.256462 372.052032,100.422035 
	C372.108582,128.579147 372.160919,156.736267 371.252197,184.955231 
	C353.431824,184.936005 335.611481,184.916794 317.896393,183.979584 
	C317.905457,152.201019 317.844208,120.422157 317.974640,88.644081 
	C318.005981,81.006409 318.278351,73.326340 319.141602,65.745674 
	C320.417114,54.544167 323.182922,43.975945 335.760468,40.356197 
	C335.760468,38.203964 335.760468,36.424530 335.760468,34.394676 
	C311.136597,34.394676 286.755127,34.394676 262.222656,34.394676 
	C262.029266,36.077568 261.861176,37.540295 261.026947,39.197342 
	C259.308014,42.846474 261.911682,41.793201 264.340302,41.306988 
	C267.357452,43.812481 270.374603,46.317970 272.801605,49.181625 
	C273.916443,51.104233 275.031311,53.026840 276.644836,55.532650 
	C277.298645,58.951572 277.952454,62.370499 277.951904,66.098190 
	C278.262177,67.064903 278.572479,68.031624 279.082855,69.856033 
	C279.318024,74.236832 279.553192,78.617630 279.128082,83.015678 
	C275.704071,84.997597 277.834045,85.987015 279.997406,87.924484 
	C280.036591,92.255020 280.101868,96.585495 280.110779,100.916092 
	C280.168549,128.899536 280.214020,156.883011 279.295959,184.943146 
	C245.639114,184.960846 211.982254,184.989761 178.325439,184.965286 
	C176.521057,184.963974 174.716995,184.513382 173.103760,183.600937 
	C173.823456,182.401917 174.543137,181.202911 175.918488,179.983673 
	C176.129425,179.255005 176.340363,178.526337 176.805771,177.131256 
	C179.955261,171.755356 183.104752,166.379440 186.911850,160.983612 
	C187.121414,160.253693 187.330994,159.523773 187.800186,158.129395 
	C190.949799,152.754074 194.099411,147.378738 197.908356,141.983597 
	C198.115189,141.252136 198.322021,140.520676 198.758240,139.180527 
	C199.637543,137.726852 200.516846,136.273178 202.110764,134.865097 
	C202.266617,134.181534 202.422455,133.497971 202.822052,132.146027 
	C204.625336,129.098297 206.428635,126.050575 208.894852,122.983620 
	C209.101059,122.250473 209.307266,121.517326 209.747299,120.176689 
	C210.628830,118.723686 211.510361,117.270691 213.108109,115.864250 
	C213.261536,115.179672 213.414963,114.495094 213.816360,113.143715 
	C215.621109,110.096741 217.425858,107.049767 219.894424,103.983498 
	C220.097565,103.249382 220.300690,102.515259 220.741638,101.175323 
	C221.622437,99.721565 222.503235,98.267799 224.102341,96.862755 
	C224.253998,96.177330 224.405670,95.491905 224.810410,94.141594 
	C226.611435,91.095161 228.412476,88.048729 230.881012,84.983551 
	C231.083649,84.247696 231.286285,83.511833 231.746506,82.132240 
	C232.583984,80.756081 233.421463,79.379921 234.915192,77.983742 
	C235.127243,77.255043 235.339279,76.526344 235.805801,75.131226 
	C241.946915,64.454971 248.202225,53.841568 254.141006,43.053928 
	C255.463776,40.651134 255.673187,37.635418 256.524170,34.413651 
	C187.352051,34.413651 119.295341,34.413651 51.058372,34.413651 
	C50.636948,36.767910 50.258007,38.884815 49.200871,41.145035 
	C49.334381,42.165752 49.467892,43.186474 49.606026,45.081676 
	C47.409077,62.734547 45.212128,80.387421 43.017689,98.020142 
	C49.343025,99.067894 50.424717,98.371078 51.918655,92.380646 
	C54.462162,82.181618 60.333649,73.881042 67.684128,65.958275 
	C68.407455,64.818748 69.130775,63.679214 70.041328,62.071060 
	C70.561470,61.668587 71.081612,61.266113 72.405693,60.928917 
	C73.610245,59.638580 74.814804,58.348248 76.378090,56.484131 
	C86.791275,48.352539 98.847992,43.555832 111.777374,43.161003 
	C144.167572,42.171879 176.589630,42.225979 209.080444,42.582180 
	C209.524841,43.111500 209.969254,43.640823 210.171616,44.842991 
	C194.084808,72.965561 178.028885,101.105858 161.898010,129.203110 
	C153.996094,142.966949 145.910690,156.625412 138.000961,170.384811 
	C135.271759,175.132416 132.822983,180.041245 129.280350,184.947693 
	C107.614029,184.964874 85.946945,185.080612 64.282066,184.912323 
	C60.173046,184.880402 58.870335,186.002975 58.908962,190.211166 
	C59.106274,211.709259 59.000031,233.210144 59.000011,254.710052 
	C59.000000,268.543335 58.993263,282.376587 59.006935,296.209869 
	C59.009171,298.473755 58.389900,301.199127 62.032200,301.785706 
	C58.505344,308.221100 55.035366,314.688477 51.437531,321.083923 
	C46.714577,329.479401 41.730373,337.732758 37.204170,346.231293 
	C35.768791,348.926422 35.439137,352.210480 34.480831,355.667511 
	C36.480480,355.855133 37.279346,355.995605 38.078239,355.995728 
	C107.507423,356.006805 176.936630,355.981934 246.365677,356.084564 
	C249.721100,356.089508 250.666153,354.831177 250.960495,351.824677 
	C251.700974,344.260864 252.680847,336.720581 253.562881,329.170624 
	C254.657135,319.804199 255.749481,310.437592 257.798615,301.024170 
	C265.206482,301.017456 272.614319,301.010742 280.073425,301.917908 
	C279.411621,308.752258 278.858734,315.599762 278.038116,322.414978 
	C277.674042,325.438538 276.133606,328.417664 276.230347,331.380951 
	C276.503937,339.760010 271.551849,344.626282 265.074615,347.933075 
	C261.328278,349.845703 260.269775,351.841736 261.422546,355.741699 
	C286.130493,355.741699 310.867584,355.741699 335.803040,355.741699 
	C335.803040,353.535248 335.803040,351.588104 335.803040,349.664062 
	C326.334747,345.844696 322.850189,342.059998 320.517029,332.221313 
	C319.828888,329.319580 320.152222,326.187164 319.909302,323.168762 
	C319.313995,315.772858 318.658875,308.381805 318.961639,300.991272 
	C336.686310,301.014282 354.410950,301.037292 372.048035,301.922455 
	C371.366791,308.909973 370.389709,315.883942 370.069550,322.887970 
	C369.505768,335.221527 365.073273,344.908478 352.927216,350.016602 
	C353.028015,351.913086 353.129669,353.825745 353.227936,355.675201 
	C372.723694,355.675201 391.760315,355.675201 410.772705,355.675201 
	C411.159393,349.402222 411.154419,349.423309 405.125854,348.004913 
	C404.174500,347.781097 403.278076,347.296844 402.378387,346.884674 
	C392.166046,342.206360 386.950928,333.437653 384.107971,323.260559 
	C382.087891,316.029175 381.252502,308.466827 380.746979,300.999878 
	C382.702606,300.669495 384.660675,300.037994 386.613495,300.053802 
	C416.725250,300.297516 446.836304,300.625397 476.989441,301.435486 
	C476.997467,301.602661 477.005524,301.769867 476.424774,302.257233 
	C475.330963,303.538666 474.237152,304.820068 473.143372,306.101501 
	C473.621338,306.446533 474.099335,306.791565 474.577301,307.136627 
	C475.718292,305.412689 476.859283,303.688751 478.428955,301.461243 
M470.899902,310.703705 
	C471.170441,310.450378 471.445923,310.201660 471.698181,309.931244 
	C471.711975,309.916443 471.532440,309.721252 471.442902,309.610046 
	C471.160431,309.874451 470.877960,310.138855 470.899902,310.703705 
M469.353882,313.668396 
	C469.471405,313.422180 469.588959,313.175964 469.706512,312.929779 
	C469.469788,312.856964 469.233032,312.784149 468.996307,312.711365 
	C468.971924,313.050781 468.947510,313.390167 469.353882,313.668396 
z"/>
<path fill="#FEFEFE" opacity="1.000000" stroke="none" 
	d="
M172.912781,184.271942 
	C174.716995,184.513382 176.521057,184.963974 178.325439,184.965286 
	C211.982254,184.989761 245.639114,184.960846 280.230011,184.921432 
	C293.373077,184.899002 305.582092,184.898285 317.791107,184.897568 
	C335.611481,184.916794 353.431824,184.936005 372.153381,184.934662 
	C375.024231,184.935211 376.993866,184.956329 379.434265,184.990768 
	C407.056915,184.951065 434.208771,184.898041 461.806091,184.868561 
	C477.777588,184.902893 493.303650,184.913696 508.829712,184.924500 
	C536.961609,184.937164 565.093567,184.949844 594.127441,184.946289 
	C597.282654,184.918457 599.535950,184.906860 601.789246,184.895264 
	C629.596252,184.919708 657.403320,184.944138 686.115234,184.953094 
	C689.566040,184.909744 692.111938,184.881882 695.149170,184.895844 
	C724.878235,184.908905 754.115967,184.880157 783.799316,184.872757 
	C789.806519,184.894119 795.368103,184.894119 801.162231,184.894119 
	C801.162231,201.986588 801.162231,218.341446 801.162231,234.696320 
	C801.108948,254.659897 801.057129,274.623474 801.001587,294.587036 
	C800.983887,300.969940 800.979370,300.989044 794.585144,300.990814 
	C745.669922,301.004517 696.754761,301.010162 646.934814,301.011536 
	C644.019226,301.002899 642.008301,301.000977 639.741516,300.744080 
	C637.053894,300.657379 634.622803,300.957428 632.190186,300.970825 
	C622.129456,301.026306 612.068237,300.995026 601.555725,300.852509 
	C584.364258,300.794495 567.624268,300.879578 550.884277,300.964661 
	C534.181702,300.964325 517.479187,300.963959 500.366608,300.601929 
	C509.208710,282.426208 518.460815,264.612122 527.712891,246.798035 
	C527.079590,246.325928 526.446289,245.853806 525.812988,245.381699 
	C524.533997,246.534729 523.056824,247.534500 522.019897,248.874802 
	C520.221497,251.199265 518.695496,253.734467 516.711548,256.123413 
	C516.282898,256.398926 516.197937,256.732330 515.744812,257.216736 
	C514.702026,257.363220 514.027466,257.358795 513.091919,257.126099 
	C512.640930,256.766479 512.450806,256.635071 512.299377,256.145325 
	C513.771851,252.666824 515.205627,249.546661 516.639343,246.426498 
	C515.980042,246.101852 515.320740,245.777222 514.661377,245.452576 
	C512.405273,249.617233 510.149170,253.781891 507.893066,257.946533 
	C508.304260,258.376495 508.715485,258.806427 509.126709,259.236359 
	C511.432648,258.813721 513.738586,258.391052 516.443909,258.188019 
	C515.025208,262.830719 513.439087,267.369904 511.304352,271.634460 
	C509.967621,274.304901 507.805328,276.562134 505.654053,279.066467 
	C505.283081,280.625732 505.271515,282.123260 505.191711,283.946716 
	C501.517029,290.721558 497.910645,297.170502 494.304260,303.619446 
	C492.980469,302.745239 491.737396,301.323395 490.315643,301.113831 
	C487.575867,300.709900 484.735016,300.991333 481.463928,300.647095 
	C478.920868,295.861450 478.193298,300.065765 476.947540,300.933716 
	C446.836304,300.625397 416.725250,300.297516 386.613495,300.053802 
	C384.660675,300.037994 382.702606,300.669495 379.887360,301.002686 
	C376.730377,301.023773 374.432983,301.042023 372.135620,301.060303 
	C354.410950,301.037292 336.686310,301.014282 318.097351,300.844116 
	C304.829407,300.799316 292.425812,300.901642 280.022186,301.003967 
	C272.614319,301.010742 265.206482,301.017456 256.882721,301.025024 
	C253.318268,301.020599 250.669724,301.015381 247.551178,301.001038 
	C201.694702,300.992584 156.308197,301.007019 110.921783,300.956055 
	C108.468346,300.953308 106.015526,300.402557 103.161919,300.224030 
	C89.222870,300.580719 75.684311,300.820282 62.145760,301.059875 
	C58.389900,301.199127 59.009171,298.473755 59.006935,296.209869 
	C58.993263,282.376587 59.000000,268.543335 59.000011,254.710052 
	C59.000031,233.210144 59.106274,211.709259 58.908962,190.211166 
	C58.870335,186.002975 60.173046,184.880402 64.282066,184.912323 
	C85.946945,185.080612 107.614029,184.964874 130.214767,184.927719 
	C140.292145,184.919907 149.435883,185.007431 158.577744,184.913391 
	C163.357788,184.864227 168.134537,184.496033 172.912781,184.271942 
M387.490753,217.973434 
	C387.660126,217.931671 387.829498,217.889893 388.724701,218.084030 
	C393.094147,215.047958 397.149597,216.613525 401.190308,218.889923 
	C412.507172,225.265549 416.095398,236.240326 410.567566,248.807739 
	C405.322968,260.731140 395.973236,268.780334 384.825226,275.013214 
	C383.563965,275.718384 382.593903,276.944366 380.843201,277.791290 
	C378.203796,278.500092 375.564392,279.208893 372.924988,279.917725 
	C373.138824,280.576172 373.352631,281.234619 373.566467,281.893066 
	C376.240967,280.668762 379.502930,281.283234 381.773865,277.197784 
	C383.218964,276.969635 384.843903,277.092682 386.081238,276.458893 
	C398.172089,270.265778 408.338165,261.967194 414.016754,249.247742 
	C420.178467,235.446167 414.639160,221.959274 400.662048,216.135757 
	C399.447052,215.629517 398.193207,215.216522 397.064056,214.799606 
	C397.296661,213.792053 397.497467,212.922302 397.671814,212.167068 
	C394.199951,213.221878 391.099579,214.163818 387.285797,214.985199 
	C386.488892,215.307755 385.691986,215.630295 383.992279,215.997467 
	C383.643738,215.002838 382.766785,213.822525 383.039612,213.046280 
	C384.127594,209.950638 385.573486,206.980774 387.250977,203.408508 
	C387.408966,202.404419 387.566956,201.400330 387.724945,200.396240 
	C387.410278,200.258362 387.095612,200.120468 386.780945,199.982590 
	C386.110687,200.954849 385.440430,201.927094 384.228912,203.296768 
	C383.343384,204.888000 382.569153,206.554642 381.551880,208.056641 
	C378.203400,213.000687 377.090790,220.342117 368.765625,220.120407 
	C368.389801,220.110397 367.970428,221.733322 367.460327,222.835571 
	C369.674896,223.069977 371.238373,223.235474 372.449005,223.363617 
	C370.868774,229.929947 369.359253,236.202454 367.985870,241.909241 
	C370.740631,243.073914 372.623871,243.870117 375.004242,244.940399 
	C375.134674,244.498077 375.265106,244.055756 375.272858,242.998260 
	C375.848816,242.298782 376.424774,241.599304 377.649780,240.962433 
	C378.500793,240.834564 379.351807,240.706696 380.910095,240.746704 
	C382.034576,240.131165 383.159058,239.515625 384.283539,238.900085 
	C384.104340,238.560883 383.925110,238.221695 383.745880,237.882492 
	C382.824799,238.272110 381.903717,238.661743 380.285278,238.998398 
	C379.188202,239.325790 378.091125,239.653183 376.188843,239.871307 
	C375.523376,239.357300 374.209991,238.691940 374.289429,238.351944 
	C375.522247,233.074341 376.379120,227.589966 378.563232,222.708359 
	C379.522949,220.563400 383.271210,219.666122 385.882996,218.700424 
	C386.256348,218.521408 386.629700,218.342407 387.490753,217.973434 
M487.194061,291.969086 
	C485.758759,293.273651 484.323456,294.578247 482.429291,295.972595 
	C482.178650,296.123749 481.928009,296.274902 481.677368,296.426056 
	C482.136505,296.310730 482.595673,296.195404 483.741791,295.963013 
	C485.198273,294.680237 486.654724,293.397461 488.660950,291.980621 
	C488.962433,291.650696 489.263885,291.320770 489.565338,290.990845 
	C489.353394,290.805634 489.141449,290.620453 488.929504,290.435242 
	C488.587524,290.925110 488.245544,291.414978 487.194061,291.969086 
M446.583099,256.952515 
	C447.082672,256.642731 447.582245,256.332977 448.010498,256.010742 
	C448.010498,256.010742 448.029541,256.080597 448.757416,255.938400 
	C452.170898,257.794525 455.271973,260.998718 460.114624,258.276337 
	C454.514038,257.652252 453.990265,254.619720 455.498199,250.239288 
	C455.946503,248.936981 455.755493,246.286530 455.056610,245.958115 
	C453.705139,245.323029 451.784363,245.899399 449.506714,246.000870 
	C449.015259,246.477478 448.523804,246.954086 447.372955,247.738037 
	C445.631592,249.727386 443.608978,251.547577 442.267670,253.777542 
	C441.598480,254.890137 442.175537,256.752319 442.188873,258.275421 
	C443.449219,257.803589 444.709534,257.331757 446.583099,256.952515 
M356.542419,249.987869 
	C358.306000,249.086670 360.069550,248.185486 361.833130,247.284286 
	C361.487000,246.758011 361.140869,246.231735 360.794739,245.705475 
	C359.079254,247.022461 357.363770,248.339462 355.228577,250.042862 
	C351.824249,253.033463 348.202148,255.820099 345.119720,259.112091 
	C343.833862,260.485382 343.696381,262.933990 342.594299,265.519379 
	C338.781708,269.353973 341.331268,273.523132 342.873810,276.878113 
	C344.058472,279.454742 347.494781,280.996124 349.929749,282.997894 
	C350.224762,282.608917 350.519806,282.219971 350.814850,281.830994 
	C343.193695,273.303436 343.193695,273.303436 344.979584,264.070587 
	C346.714905,261.533234 348.350861,258.920013 350.214508,256.480713 
	C351.941223,254.220673 353.911346,252.146622 356.542419,249.987869 
M393.729523,253.081543 
	C398.806000,250.601791 400.894409,247.203339 399.564423,243.586517 
	C398.106873,239.622696 393.127472,238.033875 389.022278,239.238510 
	C391.233734,240.617111 394.383087,242.580383 397.532410,244.543640 
	C395.675201,247.366226 393.817963,250.188828 391.270935,253.014099 
	C390.490784,253.457870 389.710602,253.901642 388.930450,254.345413 
	C389.190277,254.789368 389.450104,255.233322 389.709930,255.677261 
	C390.808228,254.859421 391.906555,254.041580 393.729523,253.081543 
M507.306763,223.958054 
	C504.340729,221.462799 501.012024,219.285934 498.484009,216.406174 
	C493.187347,210.372482 486.664886,208.573517 479.235687,212.140549 
	C486.720154,210.695068 491.994507,214.233673 497.053436,219.034210 
	C499.986359,221.817352 503.812378,223.659317 507.161682,226.673691 
	C503.728271,235.674774 500.330444,244.689667 496.844696,253.670441 
	C495.353729,257.511688 497.334290,265.093506 501.384369,268.118500 
	C498.122711,259.453003 501.570129,251.796722 504.425171,244.082977 
	C506.156342,239.405594 508.283234,234.871109 509.922211,230.164413 
	C510.955231,227.197845 512.592468,226.327805 515.739258,226.080963 
	C521.774414,225.607544 527.744690,224.307816 533.741821,223.350922 
	C533.633789,222.755630 533.525757,222.160355 533.417664,221.565063 
	C530.028015,222.198975 526.645935,222.877731 523.246521,223.454391 
	C519.733948,224.050247 516.204468,224.546860 512.040527,225.185333 
	C513.976440,220.772766 515.577515,217.123383 517.178650,213.473999 
	C516.665588,213.122940 516.152527,212.771896 515.639465,212.420853 
	C514.469482,213.676483 513.065613,214.787613 512.181030,216.219528 
	C510.622742,218.742020 509.381561,221.460342 507.306763,223.958054 
M424.956818,251.577713 
	C427.161377,250.326859 429.365906,249.076004 431.570465,247.825150 
	C428.485413,247.025833 425.355927,246.105209 423.552185,247.258362 
	C421.286713,248.706711 419.386993,251.671585 418.714691,254.332047 
	C418.274139,256.075439 419.726135,259.211823 421.316406,260.366028 
	C424.789703,262.886993 432.687256,260.930084 435.752899,257.526581 
	C432.778992,257.942810 429.738251,258.654541 426.694855,258.666107 
	C425.302338,258.671417 423.053070,257.555573 422.729309,256.483887 
	C422.343109,255.205460 423.604614,253.429245 424.956818,251.577713 
M476.317200,250.849899 
	C477.002319,249.255325 477.687408,247.660751 478.372528,246.066177 
	C477.890381,245.626587 477.408234,245.186996 476.926086,244.747406 
	C475.572906,246.002106 474.074097,247.134735 472.898041,248.537888 
	C470.711700,251.146347 468.713531,253.912491 466.637024,256.612976 
	C467.473175,255.609055 470.029541,255.486786 470.780914,256.591827 
	C473.074219,259.964600 474.769348,257.993011 477.658386,256.424896 
	C475.861725,256.120941 474.937561,255.964600 473.718658,255.758392 
	C474.576294,254.125610 475.261047,252.821960 476.317200,250.849899 
M485.909576,253.617813 
	C486.964508,251.293518 488.019409,248.969208 489.074341,246.644913 
	C488.624664,246.281784 488.175018,245.918640 487.725342,245.555496 
	C484.796204,248.270905 481.867035,250.986298 478.782196,253.846008 
	C482.317322,254.400009 481.610779,261.965881 485.947693,259.186890 
	C485.816895,257.087097 485.730652,255.703094 485.909576,253.617813 
M402.989075,196.462540 
	C401.390411,196.064560 399.791718,195.666580 398.193054,195.268616 
	C397.979218,195.636795 397.765350,196.004990 397.551514,196.373169 
	C402.956451,197.630539 404.315704,201.094543 402.657623,206.342834 
	C407.117432,202.916183 407.179688,201.005325 402.989075,196.462540 
M353.253906,282.862549 
	C357.498016,284.962311 361.624023,284.264221 365.721802,282.130524 
	C361.558838,282.130524 357.395844,282.130524 353.253906,282.862549 
M385.035187,254.538940 
	C384.552917,255.076248 384.070648,255.613571 383.588348,256.150879 
	C384.417572,256.338257 385.246796,256.525665 386.076019,256.713043 
	C385.944275,255.921661 385.812531,255.130295 385.035187,254.538940 
M401.732819,209.441757 
	C401.664032,209.394699 401.579407,209.293900 401.528839,209.308777 
	C400.946167,209.480042 400.368683,209.668869 399.789795,209.852997 
	C400.073456,210.126434 400.357117,210.399872 400.640778,210.673309 
	C400.925781,210.335724 401.210754,209.998138 401.732819,209.441757 
M502.157806,281.349518 
	C501.199097,281.810974 500.240387,282.272430 499.281647,282.733856 
	C499.568451,283.147827 499.855225,283.561768 500.141998,283.975739 
	C500.958282,283.244873 501.774567,282.514008 502.157806,281.349518 
M369.758331,282.855194 
	C370.094452,282.246796 370.430573,281.638397 370.766724,281.029968 
	C370.390167,280.865051 370.013611,280.700104 369.637024,280.535187 
	C369.474792,281.299805 369.312592,282.064453 369.758331,282.855194 
M497.556152,285.300323 
	C497.284454,285.015656 497.012787,284.731018 496.741089,284.446350 
	C496.624390,284.559082 496.399628,284.763000 496.406677,284.771362 
	C496.659180,285.070770 496.933411,285.351929 497.556152,285.300323 
M493.155304,287.957306 
	C493.413055,287.807159 493.784027,287.710205 493.888367,287.488007 
	C493.957336,287.341217 493.643219,287.014526 493.500610,286.768402 
	C493.357483,287.014801 493.214325,287.261200 493.155304,287.957306 
M438.823486,256.933716 
	C438.587128,256.786499 438.209808,256.678589 438.154724,256.480865 
	C438.101288,256.289001 438.378662,256.004944 438.510742,255.761368 
	C438.638092,256.006744 438.765411,256.252106 438.823486,256.933716 
M365.474976,245.349930 
	C365.527344,245.149918 365.579742,244.949905 365.632111,244.749893 
	C365.503998,244.878418 365.375916,245.006943 365.474976,245.349930 
M478.474487,213.493530 
	C478.474487,213.493530 478.512482,213.495010 478.474487,213.493530 
z"/>
<path fill="#AA4F65" opacity="1.000000" stroke="none" 
	d="
M694.657776,184.854019 
	C692.111938,184.881882 689.566040,184.909744 686.593872,184.930878 
	C691.476868,171.494476 696.746460,158.048965 702.109192,144.640686 
	C705.716675,135.621063 709.472046,126.660690 713.131714,117.661797 
	C717.768066,106.261284 722.411804,94.863503 726.972534,83.432693 
	C728.475464,79.665855 729.807129,75.825500 731.083130,71.974373 
	C733.817383,63.721973 729.746582,56.906937 726.033081,50.194809 
	C723.353516,45.351616 723.390808,45.724415 728.503357,43.856754 
	C734.976624,41.491993 741.047974,38.044140 747.358337,35.209564 
	C750.690857,33.712597 754.111023,31.771997 757.594604,31.533220 
	C759.213257,31.422276 761.708923,34.599579 762.716125,36.788303 
	C766.297852,44.571159 769.458191,52.550472 772.684814,60.493290 
	C775.126770,66.504601 777.284302,72.634117 779.821533,78.603439 
	C784.019531,88.480278 788.622192,98.188339 792.683716,108.119133 
	C797.140564,119.016518 800.969666,130.171341 805.456360,141.055679 
	C809.939758,151.932190 815.018066,162.562149 819.602905,173.398651 
	C822.301880,179.777847 824.338745,186.437531 827.047180,192.812271 
	C831.054871,202.244995 835.535461,211.476898 839.538330,220.911545 
	C841.794739,226.229828 843.330505,231.850159 845.487610,237.215103 
	C848.750916,245.331009 852.300110,253.331528 855.677063,261.402344 
	C858.477722,268.095978 861.004883,274.911255 864.004333,281.513092 
	C871.554871,298.131927 878.707336,314.977997 887.268555,331.068298 
	C890.664795,337.451416 897.280518,342.161377 902.623657,347.437408 
	C903.790344,348.589447 905.781860,348.906128 907.632629,349.711639 
	C907.365662,351.413727 907.047058,353.444641 906.689148,355.726807 
	C883.333801,355.726807 859.932556,355.726807 835.006836,355.726807 
	C836.462158,352.879944 836.997192,350.163330 838.645569,348.903595 
	C845.113953,343.960541 846.556274,341.195862 843.550171,333.169281 
	C838.564026,319.855316 832.977356,306.766663 827.677124,293.569672 
	C824.427185,285.477692 821.284973,277.342255 818.012817,269.259369 
	C813.635620,258.446991 809.220398,247.649338 804.686584,236.902267 
	C804.284729,235.949570 802.889038,235.416138 801.558594,234.692139 
	C801.162231,218.341446 801.162231,201.986588 801.162231,184.894119 
	C795.368103,184.894119 789.806519,184.894119 783.689697,184.519424 
	C768.336426,148.577499 753.538513,113.010277 738.344727,76.491684 
	C723.559814,113.164635 709.108765,149.009323 694.657776,184.854019 
z"/>
<path fill="#AB5065" opacity="1.000000" stroke="none" 
	d="
M173.008270,183.936432 
	C168.134537,184.496033 163.357788,184.864227 158.577744,184.913391 
	C149.435883,185.007431 140.292145,184.919907 130.697647,184.892090 
	C132.822983,180.041245 135.271759,175.132416 138.000961,170.384811 
	C145.910690,156.625412 153.996094,142.966949 161.898010,129.203110 
	C178.028885,101.105858 194.084808,72.965561 210.532837,44.236561 
	C210.262329,43.040619 209.630615,42.451111 208.998901,41.861603 
	C176.589630,42.225979 144.167572,42.171879 111.777374,43.161003 
	C98.847992,43.555832 86.791275,48.352539 75.885124,56.859184 
	C74.128693,58.444042 72.865227,59.653843 71.601753,60.863647 
	C71.081612,61.266113 70.561470,61.668587 69.668274,62.484200 
	C68.489616,63.916512 67.684021,64.935677 66.878433,65.954849 
	C60.333649,73.881042 54.462162,82.181618 51.918655,92.380646 
	C50.424717,98.371078 49.343025,99.067894 43.017689,98.020142 
	C45.212128,80.387421 47.409077,62.734547 49.724266,44.341316 
	C49.854698,42.734543 49.866882,41.868130 49.879070,41.001717 
	C50.258007,38.884815 50.636948,36.767910 51.058372,34.413651 
	C119.295341,34.413651 187.352051,34.413651 256.524170,34.413651 
	C255.673187,37.635418 255.463776,40.651134 254.141006,43.053928 
	C248.202225,53.841568 241.946915,64.454971 235.480621,75.636223 
	C234.856598,76.762070 234.557785,77.382912 234.258957,78.003761 
	C233.421463,79.379921 232.583984,80.756081 231.430420,82.637619 
	C230.814056,83.762764 230.513779,84.382530 230.213501,85.002296 
	C228.412476,88.048729 226.611435,91.095161 224.472198,94.678360 
	C223.883987,95.748100 223.634018,96.281067 223.384033,96.814034 
	C222.503235,98.267799 221.622437,99.721565 220.434784,101.660027 
	C219.828812,102.764084 219.529709,103.383438 219.230606,104.002792 
	C217.425858,107.049767 215.621109,110.096741 213.477661,113.678947 
	C212.889938,114.748680 212.640915,115.283180 212.391876,115.817688 
	C211.510361,117.270691 210.628830,118.723686 209.439728,120.660042 
	C208.832062,121.763206 208.531982,122.383018 208.231903,123.002838 
	C206.428635,126.050575 204.625336,129.098297 202.484177,132.680939 
	C201.896255,133.750412 201.646194,134.284958 201.396149,134.819504 
	C200.516846,136.273178 199.637543,137.726852 198.449371,139.660339 
	C197.843338,140.761246 197.546173,141.382324 197.249023,142.003418 
	C194.099411,147.378738 190.949799,152.754074 187.475311,158.636017 
	C186.851715,159.762939 186.552979,160.383240 186.254242,161.003540 
	C183.104752,166.379440 179.955261,171.755356 176.480820,177.636047 
	C175.858200,178.761871 175.560516,179.382889 175.262817,180.003906 
	C174.543137,181.202911 173.823456,182.401917 173.008270,183.936432 
z"/>
<path fill="#AA4F64" opacity="1.000000" stroke="none" 
	d="
M378.963501,184.977448 
	C376.993866,184.956329 375.024231,184.935211 372.634583,184.903732 
	C372.160919,156.736267 372.108582,128.579147 372.052032,100.422035 
	C372.045654,97.256462 372.015594,94.090935 371.981628,90.064667 
	C371.907593,88.135452 371.848480,87.066963 371.789368,85.998466 
	C371.266083,79.263283 370.742798,72.528099 370.121094,65.004745 
	C369.040527,61.094368 368.058411,57.972160 367.076294,54.849957 
	C366.789551,54.066338 366.502838,53.282715 365.954376,51.935829 
	C364.847137,50.397350 364.001617,49.422138 363.156128,48.446930 
	C358.493530,45.557285 353.830963,42.667641 348.395142,39.298790 
	C348.395142,38.662201 348.395142,36.733379 348.395142,34.362030 
	C350.101349,34.285404 351.714386,34.153061 353.327637,34.150223 
	C363.985565,34.131466 374.671204,34.608437 385.292236,33.981937 
	C392.820618,33.537865 396.572327,37.238434 400.090210,43.016731 
	C403.296783,48.283707 407.525970,52.928047 411.303406,57.847580 
	C419.942200,69.098206 428.493469,80.417572 437.254578,91.572121 
	C441.800690,97.360161 446.883026,102.727509 451.418732,108.523125 
	C455.645477,113.923935 459.290436,119.779678 463.509705,125.186859 
	C470.723969,134.432404 478.295502,143.399307 485.504364,152.648941 
	C489.810974,158.174774 493.676453,164.042526 497.807495,169.707520 
	C501.374634,174.599213 505.036835,179.421600 508.743347,184.599548 
	C493.303650,184.913696 477.777588,184.902893 461.668396,184.549316 
	C434.201965,149.217499 407.318634,114.228485 380.435303,79.239464 
	C380.076630,79.401436 379.717926,79.563400 379.359253,79.725372 
	C379.359253,81.345337 379.359283,82.965309 379.359283,84.585274 
	C379.359375,116.065285 379.366577,147.545303 379.342529,179.025299 
	C379.341003,181.009445 379.095490,182.993408 378.963501,184.977448 
z"/>
<path fill="#AA4F64" opacity="1.000000" stroke="none" 
	d="
M317.843750,184.438568 
	C305.582092,184.898285 293.373077,184.899002 280.713776,184.883087 
	C280.214020,156.883011 280.168549,128.899536 280.110779,100.916092 
	C280.101868,96.585495 280.036591,92.255020 279.982117,87.063889 
	C279.907318,85.135010 279.847870,84.066719 279.788391,82.998428 
	C279.553192,78.617630 279.318024,74.236832 279.039429,69.104141 
	C278.866119,67.497971 278.736176,66.643700 278.606262,65.789421 
	C277.952454,62.370499 277.298645,58.951572 276.387329,54.887974 
	C275.217102,52.436687 274.304443,50.630077 273.391754,48.823463 
	C270.374603,46.317970 267.357452,43.812481 263.864929,41.175255 
	C262.824066,40.363350 262.258575,39.683182 261.693054,39.003021 
	C261.861176,37.540295 262.029266,36.077568 262.222656,34.394676 
	C286.755127,34.394676 311.136597,34.394676 335.760468,34.394676 
	C335.760468,36.424530 335.760468,38.203964 335.760468,40.356197 
	C323.182922,43.975945 320.417114,54.544167 319.141602,65.745674 
	C318.278351,73.326340 318.005981,81.006409 317.974640,88.644081 
	C317.844208,120.422157 317.905457,152.201019 317.843750,184.438568 
z"/>
<path fill="#AA5065" opacity="1.000000" stroke="none" 
	d="
M248.021179,301.010132 
	C250.669724,301.015381 253.318268,301.020599 256.404724,301.048462 
	C255.749481,310.437592 254.657135,319.804199 253.562881,329.170624 
	C252.680847,336.720581 251.700974,344.260864 250.960495,351.824677 
	C250.666153,354.831177 249.721100,356.089508 246.365677,356.084564 
	C176.936630,355.981934 107.507423,356.006805 38.078239,355.995728 
	C37.279346,355.995605 36.480480,355.855133 34.480831,355.667511 
	C35.439137,352.210480 35.768791,348.926422 37.204170,346.231293 
	C41.730373,337.732758 46.714577,329.479401 51.437531,321.083923 
	C55.035366,314.688477 58.505344,308.221100 62.088982,301.422791 
	C75.684311,300.820282 89.222870,300.580719 103.435760,300.542999 
	C103.450760,302.520874 103.023125,304.429413 102.095337,306.051910 
	C94.824310,318.767456 87.450623,331.424225 80.131256,344.112183 
	C79.444344,345.302917 78.913742,346.583862 78.264359,347.917877 
	C79.134384,348.149872 79.453255,348.309998 79.771698,348.309143 
	C112.095993,348.223846 144.432495,348.627441 176.739853,347.838623 
	C195.612534,347.377838 213.798477,343.190430 228.366989,329.671967 
	C237.066879,321.599152 242.840088,311.503937 248.021179,301.010132 
z"/>
<path fill="#AA5065" opacity="1.000000" stroke="none" 
	d="
M550.996216,301.303131 
	C567.624268,300.879578 584.364258,300.794495 601.529785,301.320923 
	C601.955383,317.596191 601.955383,333.259979 601.955383,349.121429 
	C609.074585,347.252014 615.970886,343.339905 620.181152,336.522827 
	C627.298889,324.998016 633.443542,312.872192 639.997314,300.999084 
	C642.008301,301.000977 644.019226,301.002899 646.459473,301.028351 
	C645.038330,307.785187 643.623535,314.678223 641.227966,321.211609 
	C638.169678,329.552551 639.500000,341.579041 644.878723,346.381683 
	C645.965393,347.351929 647.237061,348.216125 648.569336,348.791473 
	C653.017029,350.712128 653.042419,350.653381 652.650146,356.007172 
	C650.592590,356.007172 648.482300,356.007172 646.371948,356.007172 
	C633.568481,356.007172 620.764832,355.967865 607.961792,356.040771 
	C605.443359,356.055084 602.407043,354.822449 601.025208,358.782471 
	C600.854248,359.272186 595.123657,359.181976 593.967834,357.748779 
	C586.011536,347.883514 578.635620,337.552521 570.976318,327.444611 
	C564.420532,318.792938 557.735901,310.238861 550.996216,301.303131 
z"/>
<path fill="#A94E64" opacity="1.000000" stroke="none" 
	d="
M280.047791,301.460938 
	C292.425812,300.901642 304.829407,300.799316 317.630432,300.842896 
	C318.658875,308.381805 319.313995,315.772858 319.909302,323.168762 
	C320.152222,326.187164 319.828888,329.319580 320.517029,332.221313 
	C322.850189,342.059998 326.334747,345.844696 335.803040,349.664062 
	C335.803040,351.588104 335.803040,353.535248 335.803040,355.741699 
	C310.867584,355.741699 286.130493,355.741699 261.422546,355.741699 
	C260.269775,351.841736 261.328278,349.845703 265.074615,347.933075 
	C271.551849,344.626282 276.503937,339.760010 276.230347,331.380951 
	C276.133606,328.417664 277.674042,325.438538 278.038116,322.414978 
	C278.858734,315.599762 279.411621,308.752258 280.047791,301.460938 
z"/>
<path fill="#AB5166" opacity="1.000000" stroke="none" 
	d="
M601.841919,184.436493 
	C599.535950,184.906860 597.282654,184.918457 594.606995,184.920013 
	C594.129089,161.589493 594.749573,138.241150 593.790527,114.957863 
	C593.101562,98.229874 594.024658,81.160675 588.122864,64.942764 
	C584.335754,54.535713 578.825317,45.984180 567.270264,42.766972 
	C563.768494,41.791988 560.572693,39.588772 562.756592,34.485458 
	C581.497070,34.485458 600.541138,34.485458 619.798218,34.485458 
	C619.798218,36.474434 619.798218,38.263668 619.798218,40.360596 
	C607.037842,44.145180 603.541077,54.663780 603.158386,66.149490 
	C602.305420,91.750229 602.246094,117.378677 601.973938,142.997009 
	C601.828796,156.655991 601.913635,170.317398 601.841919,184.436493 
z"/>
<path fill="#AA4F65" opacity="1.000000" stroke="none" 
	d="
M372.091827,301.491364 
	C374.432983,301.042023 376.730377,301.023773 379.458038,301.028870 
	C381.252502,308.466827 382.087891,316.029175 384.107971,323.260559 
	C386.950928,333.437653 392.166046,342.206360 402.378387,346.884674 
	C403.278076,347.296844 404.174500,347.781097 405.125854,348.004913 
	C411.154419,349.423309 411.159393,349.402222 410.772705,355.675201 
	C391.760315,355.675201 372.723694,355.675201 353.227936,355.675201 
	C353.129669,353.825745 353.028015,351.913086 352.927216,350.016602 
	C365.073273,344.908478 369.505768,335.221527 370.069550,322.887970 
	C370.389709,315.883942 371.366791,308.909973 372.091827,301.491364 
z"/>
<path fill="#191918" opacity="1.000000" stroke="none" 
	d="
M506.013428,279.004761 
	C507.805328,276.562134 509.967621,274.304901 511.304352,271.634460 
	C513.439087,267.369904 515.025208,262.830719 516.405090,258.196960 
	C515.966858,257.986267 515.984497,258.064392 516.409729,258.212341 
	C516.910889,257.813782 516.986877,257.267242 517.071533,256.585693 
	C517.080322,256.450684 517.055298,256.181305 517.055298,256.181305 
	C518.695496,253.734467 520.221497,251.199265 522.019897,248.874802 
	C523.056824,247.534500 524.533997,246.534729 525.812988,245.381699 
	C526.446289,245.853806 527.079590,246.325928 527.712891,246.798035 
	C518.460815,264.612122 509.208710,282.426208 499.886780,300.584351 
	C495.235748,307.739685 490.654602,314.550995 486.073456,321.362274 
	C485.450439,320.945404 484.827393,320.528534 484.204376,320.111664 
	C487.529877,314.830231 490.855377,309.548798 494.242554,303.943420 
	C497.910645,297.170502 501.517029,290.721558 505.446594,283.727844 
	C505.850983,281.790314 505.932220,280.397522 506.013428,279.004761 
z"/>
<path fill="#545454" opacity="1.000000" stroke="none" 
	d="
M464.452881,322.194946 
	C464.393707,323.185516 464.397705,324.184631 464.264587,325.165161 
	C463.653473,329.667450 465.435516,331.790985 470.565430,331.228699 
	C471.039520,331.332916 470.964233,331.772797 470.964233,331.772797 
	C465.341919,334.698517 462.265656,333.149658 462.250092,327.190460 
	C462.244781,325.163483 462.945038,323.134644 463.694580,321.254028 
	C464.102112,321.711212 464.230957,321.975739 464.452881,322.194946 
z"/>
<path fill="#33332F" opacity="1.000000" stroke="none" 
	d="
M471.340576,331.894623 
	C470.964233,331.772797 471.039520,331.332916 470.991394,331.115051 
	C473.725311,328.919281 476.507385,326.941406 479.644409,325.299500 
	C480.034698,325.962372 480.070038,326.289368 480.105347,326.616394 
	C477.309204,328.416443 474.513062,330.216461 471.340576,331.894623 
z"/>
<path fill="#FBFEE9" opacity="1.000000" stroke="none" 
	d="
M366.926392,55.191338 
	C368.058411,57.972160 369.040527,61.094368 369.983765,64.607651 
	C368.888733,61.843399 367.832611,58.688057 366.926392,55.191338 
z"/>
<path fill="#FBFEE9" opacity="1.000000" stroke="none" 
	d="
M273.096680,49.002544 
	C274.304443,50.630077 275.217102,52.436687 276.137970,54.596375 
	C275.031311,53.026840 273.916443,51.104233 273.096680,49.002544 
z"/>
<path fill="#F5F8E4" opacity="1.000000" stroke="none" 
	d="
M478.000244,301.964844 
	C476.859283,303.688751 475.718292,305.412689 474.577301,307.136627 
	C474.099335,306.791565 473.621338,306.446533 473.143372,306.101501 
	C474.237152,304.820068 475.330963,303.538666 476.965637,302.109406 
	C477.506500,301.961578 478.000244,301.964813 478.000244,301.964844 
z"/>
<path fill="#F5F8E4" opacity="1.000000" stroke="none" 
	d="
M464.786499,322.021545 
	C464.230957,321.975739 464.102112,321.711212 464.040802,321.178772 
	C464.970459,319.115265 465.925537,317.274384 466.880646,315.433533 
	C467.244476,315.604370 467.608337,315.775208 467.972198,315.946045 
	C467.021515,317.913391 466.070801,319.880737 464.786499,322.021545 
z"/>
<path fill="#FBFEE9" opacity="1.000000" stroke="none" 
	d="
M371.443542,86.009781 
	C371.848480,87.066963 371.907593,88.135452 371.903503,89.601715 
	C370.944916,89.225273 370.049561,88.451057 369.154205,87.676849 
	C369.802063,87.124924 370.449890,86.573006 371.443542,86.009781 
z"/>
<path fill="#FBFEE9" opacity="1.000000" stroke="none" 
	d="
M279.458252,83.007050 
	C279.847870,84.066719 279.907318,85.135010 279.903320,86.600960 
	C277.834045,85.987015 275.704071,84.997597 279.458252,83.007050 
z"/>
<path fill="#F8F8F7" opacity="1.000000" stroke="none" 
	d="
M478.214600,301.713013 
	C478.000244,301.964813 477.506500,301.961578 477.260010,301.949341 
	C477.005524,301.769867 476.997467,301.602661 476.968506,301.184601 
	C478.193298,300.065765 478.920868,295.861450 480.998505,300.644104 
	C480.146515,301.142212 479.287720,301.301727 478.214600,301.713013 
z"/>
<path fill="#FBFEE9" opacity="1.000000" stroke="none" 
	d="
M72.003723,60.896282 
	C72.865227,59.653843 74.128693,58.444042 75.705757,57.146076 
	C74.814804,58.348248 73.610245,59.638580 72.003723,60.896282 
z"/>
<path fill="#FBFEE9" opacity="1.000000" stroke="none" 
	d="
M261.359985,39.100182 
	C262.258575,39.683182 262.824066,40.363350 263.537903,41.342690 
	C261.911682,41.793201 259.308014,42.846474 261.359985,39.100182 
z"/>
<path fill="#FBFEE9" opacity="1.000000" stroke="none" 
	d="
M363.122009,48.848351 
	C364.001617,49.422138 364.847137,50.397350 365.751831,51.686901 
	C364.903320,51.084087 363.995605,50.166931 363.122009,48.848351 
z"/>
<path fill="#FBFEE9" opacity="1.000000" stroke="none" 
	d="
M278.279053,65.943802 
	C278.736176,66.643700 278.866119,67.497971 278.939392,68.675293 
	C278.572479,68.031624 278.262177,67.064903 278.279053,65.943802 
z"/>
<path fill="#FBFEE9" opacity="1.000000" stroke="none" 
	d="
M49.539970,41.073376 
	C49.866882,41.868130 49.854698,42.734543 49.721954,43.904076 
	C49.467892,43.186474 49.334381,42.165752 49.539970,41.073376 
z"/>
<path fill="#FBFEE9" opacity="1.000000" stroke="none" 
	d="
M67.281281,65.956558 
	C67.684021,64.935677 68.489616,63.916512 69.574661,62.718513 
	C69.130775,63.679214 68.407455,64.818748 67.281281,65.956558 
z"/>
<path fill="#FBFEE9" opacity="1.000000" stroke="none" 
	d="
M208.563385,122.993225 
	C208.531982,122.383018 208.832062,121.763206 209.322815,120.963791 
	C209.307266,121.517326 209.101059,122.250473 208.563385,122.993225 
z"/>
<path fill="#FBFEE9" opacity="1.000000" stroke="none" 
	d="
M175.590668,179.993790 
	C175.560516,179.382889 175.858200,178.761871 176.353577,177.969269 
	C176.340363,178.526337 176.129425,179.255005 175.590668,179.993790 
z"/>
<path fill="#FBFEE9" opacity="1.000000" stroke="none" 
	d="
M219.562515,103.993149 
	C219.529709,103.383438 219.828812,102.764084 220.315857,101.962936 
	C220.300690,102.515259 220.097565,103.249382 219.562515,103.993149 
z"/>
<path fill="#FBFEE9" opacity="1.000000" stroke="none" 
	d="
M234.587067,77.993752 
	C234.557785,77.382912 234.856598,76.762070 235.353378,75.969437 
	C235.339279,76.526344 235.127243,77.255043 234.587067,77.993752 
z"/>
<path fill="#FBFEE9" opacity="1.000000" stroke="none" 
	d="
M230.547256,84.992920 
	C230.513779,84.382530 230.814056,83.762764 231.301636,82.959488 
	C231.286285,83.511833 231.083649,84.247696 230.547256,84.992920 
z"/>
<path fill="#FBFEE9" opacity="1.000000" stroke="none" 
	d="
M186.583038,160.993576 
	C186.552979,160.383240 186.851715,159.762939 187.345520,158.968231 
	C187.330994,159.523773 187.121414,160.253693 186.583038,160.993576 
z"/>
<path fill="#FBFEE9" opacity="1.000000" stroke="none" 
	d="
M197.578690,141.993500 
	C197.546173,141.382324 197.843338,140.761246 198.334686,139.964691 
	C198.322021,140.520676 198.115189,141.252136 197.578690,141.993500 
z"/>
<path fill="#FBFEE9" opacity="1.000000" stroke="none" 
	d="
M209.039673,42.221893 
	C209.630615,42.451111 210.262329,43.040619 210.653854,43.900139 
	C209.969254,43.640823 209.524841,43.111500 209.039673,42.221893 
z"/>
<path fill="#FBFEE9" opacity="1.000000" stroke="none" 
	d="
M223.743195,96.838394 
	C223.634018,96.281067 223.883987,95.748100 224.345642,95.010803 
	C224.405670,95.491905 224.253998,96.177330 223.743195,96.838394 
z"/>
<path fill="#FBFEE9" opacity="1.000000" stroke="none" 
	d="
M212.750000,115.840965 
	C212.640915,115.283180 212.889938,114.748680 213.353668,114.012344 
	C213.414963,114.495094 213.261536,115.179672 212.750000,115.840965 
z"/>
<path fill="#FBFEE9" opacity="1.000000" stroke="none" 
	d="
M201.753448,134.842300 
	C201.646194,134.284958 201.896255,133.750412 202.362305,133.015137 
	C202.422455,133.497971 202.266617,134.181534 201.753448,134.842300 
z"/>
<path fill="#F5F8E4" opacity="1.000000" stroke="none" 
	d="
M470.747681,310.553467 
	C470.877960,310.138855 471.160431,309.874451 471.442902,309.610046 
	C471.532440,309.721252 471.711975,309.916443 471.698181,309.931244 
	C471.445923,310.201660 471.170441,310.450378 470.747681,310.553467 
z"/>
<path fill="#F5F8E4" opacity="1.000000" stroke="none" 
	d="
M469.138489,313.698975 
	C468.947510,313.390167 468.971924,313.050781 468.996307,312.711365 
	C469.233032,312.784149 469.469788,312.856964 469.706482,312.929779 
	C469.588959,313.175964 469.471405,313.422180 469.138489,313.698975 
z"/>
<path fill="#191918" opacity="1.000000" stroke="none" 
	d="
M480.372742,326.469086 
	C480.070038,326.289368 480.034698,325.962372 479.956421,325.143921 
	C479.997589,324.488800 480.081787,324.325226 480.560486,324.430359 
	C481.093597,324.922974 481.232208,325.146790 481.370819,325.370636 
	C481.127258,325.687683 480.883698,326.004730 480.372742,326.469086 
z"/>
<path fill="#191918" opacity="1.000000" stroke="none" 
	d="
M480.954132,323.683105 
	C481.534180,323.316223 482.114258,322.949310 482.694305,322.582428 
	C482.835510,322.980499 482.976715,323.378601 482.406372,323.867859 
	C481.447906,323.867065 481.201019,323.775085 480.954132,323.683105 
z"/>
<path fill="#191918" opacity="1.000000" stroke="none" 
	d="
M482.031799,324.165405 
	C482.193115,324.647064 482.017426,324.922363 481.606262,325.284149 
	C481.232208,325.146790 481.093597,324.922974 480.816833,324.328064 
	C480.678650,323.956970 480.891205,323.798553 480.922668,323.740845 
	C481.201019,323.775085 481.447906,323.867065 482.031799,324.165405 
z"/>
<path fill="#FBFEE9" opacity="1.000000" stroke="none" 
	d="
M247.551178,301.001038 
	C242.840088,311.503937 237.066879,321.599152 228.366989,329.671967 
	C213.798477,343.190430 195.612534,347.377838 176.739853,347.838623 
	C144.432495,348.627441 112.095993,348.223846 79.771698,348.309143 
	C79.453255,348.309998 79.134384,348.149872 78.264359,347.917877 
	C78.913742,346.583862 79.444344,345.302917 80.131256,344.112183 
	C87.450623,331.424225 94.824310,318.767456 102.095337,306.051910 
	C103.023125,304.429413 103.450760,302.520874 103.836258,300.425873 
	C106.015526,300.402557 108.468346,300.953308 110.921783,300.956055 
	C156.308197,301.007019 201.694702,300.992584 247.551178,301.001038 
z"/>
<path fill="#FBFDE8" opacity="1.000000" stroke="none" 
	d="
M695.149170,184.895844 
	C709.108765,149.009323 723.559814,113.164635 738.344727,76.491684 
	C753.538513,113.010277 768.336426,148.577499 783.244019,184.498062 
	C754.115967,184.880157 724.878235,184.908905 695.149170,184.895844 
z"/>
<path fill="#FAFBE7" opacity="1.000000" stroke="none" 
	d="
M379.434265,184.990753 
	C379.095490,182.993408 379.341003,181.009445 379.342529,179.025299 
	C379.366577,147.545303 379.359375,116.065285 379.359283,84.585274 
	C379.359283,82.965309 379.359253,81.345337 379.359253,79.725372 
	C379.717926,79.563400 380.076630,79.401436 380.435303,79.239464 
	C407.318634,114.228485 434.201965,149.217499 461.222961,184.525772 
	C434.208771,184.898041 407.056915,184.951065 379.434265,184.990753 
z"/>
<path fill="#FBFDE9" opacity="1.000000" stroke="none" 
	d="
M639.741455,300.744080 
	C633.443542,312.872192 627.298889,324.998016 620.181152,336.522827 
	C615.970886,343.339905 609.074585,347.252014 601.955383,349.121429 
	C601.955383,333.259979 601.955383,317.596191 601.981323,301.463989 
	C612.068237,300.995026 622.129456,301.026306 632.190186,300.970825 
	C634.622803,300.957428 637.053894,300.657379 639.741455,300.744080 
z"/>
<path fill="#171717" opacity="1.000000" stroke="none" 
	d="
M508.007629,224.096649 
	C509.381561,221.460342 510.622742,218.742020 512.181030,216.219528 
	C513.065613,214.787613 514.469482,213.676483 515.639465,212.420853 
	C516.152527,212.771896 516.665588,213.122940 517.178650,213.473999 
	C515.577515,217.123383 513.976440,220.772766 512.040527,225.185333 
	C516.204468,224.546860 519.733948,224.050247 523.246521,223.454391 
	C526.645935,222.877731 530.028015,222.198975 533.417664,221.565063 
	C533.525757,222.160355 533.633789,222.755630 533.741821,223.350922 
	C527.744690,224.307816 521.774414,225.607544 515.739258,226.080963 
	C512.592468,226.327805 510.955231,227.197845 509.922211,230.164413 
	C508.283234,234.871109 506.156342,239.405594 504.425171,244.082977 
	C501.570129,251.796722 498.122711,259.453003 501.384369,268.118500 
	C497.334290,265.093506 495.353729,257.511688 496.844696,253.670441 
	C500.330444,244.689667 503.728271,235.674774 507.402771,226.136429 
	C507.765106,225.098343 507.886383,224.597504 508.007629,224.096649 
z"/>
<path fill="#202020" opacity="1.000000" stroke="none" 
	d="
M387.999207,215.105759 
	C391.099579,214.163818 394.199951,213.221878 397.671814,212.167068 
	C397.497467,212.922302 397.296661,213.792053 397.064056,214.799606 
	C398.193207,215.216522 399.447052,215.629517 400.662048,216.135757 
	C414.639160,221.959274 420.178467,235.446167 414.016754,249.247742 
	C408.338165,261.967194 398.172089,270.265778 386.081238,276.458893 
	C384.843903,277.092682 383.218964,276.969635 381.597656,277.582825 
	C381.421478,277.967896 381.488831,277.928833 381.488831,277.928833 
	C382.593903,276.944366 383.563965,275.718384 384.825226,275.013214 
	C395.973236,268.780334 405.322968,260.731140 410.567566,248.807739 
	C416.095398,236.240326 412.507172,225.265549 401.190308,218.889923 
	C397.149597,216.613525 393.094147,215.047958 388.361633,217.623291 
	C387.998779,216.476944 387.998993,215.791351 387.999207,215.105759 
z"/>
<path fill="#202020" opacity="1.000000" stroke="none" 
	d="
M386.886902,203.964355 
	C385.573486,206.980774 384.127594,209.950638 383.039612,213.046280 
	C382.766785,213.822525 383.643738,215.002838 384.689880,216.123550 
	C385.577301,216.773361 385.767151,217.297089 385.905701,217.915985 
	C385.854370,218.011154 385.753357,218.202332 385.753357,218.202332 
	C383.271210,219.666122 379.522949,220.563400 378.563232,222.708359 
	C376.379120,227.589966 375.522247,233.074341 374.289429,238.351944 
	C374.209991,238.691940 375.523376,239.357300 376.593079,240.155746 
	C376.997345,240.440186 377.000702,240.899811 377.000702,240.899811 
	C376.424774,241.599304 375.848816,242.298782 375.099365,243.558350 
	C374.786316,244.301071 374.646729,244.483688 374.507111,244.666321 
	C372.623871,243.870117 370.740631,243.073914 367.985870,241.909241 
	C369.359253,236.202454 370.868774,229.929947 372.449005,223.363617 
	C371.238373,223.235474 369.674896,223.069977 367.460327,222.835571 
	C367.970428,221.733322 368.389801,220.110397 368.765625,220.120407 
	C377.090790,220.342117 378.203400,213.000687 381.551880,208.056641 
	C382.569153,206.554642 383.343384,204.888000 384.775146,203.208008 
	C385.843231,203.400940 386.365051,203.682648 386.886902,203.964355 
z"/>
<path fill="#1F1F1F" opacity="1.000000" stroke="none" 
	d="
M424.554565,251.723206 
	C423.604614,253.429245 422.343109,255.205460 422.729309,256.483887 
	C423.053070,257.555573 425.302338,258.671417 426.694855,258.666107 
	C429.738251,258.654541 432.778992,257.942810 435.752899,257.526581 
	C432.687256,260.930084 424.789703,262.886993 421.316406,260.366028 
	C419.726135,259.211823 418.274139,256.075439 418.714691,254.332047 
	C419.386993,251.671585 421.286713,248.706711 423.552185,247.258362 
	C425.355927,246.105209 428.485413,247.025833 431.570465,247.825150 
	C429.365906,249.076004 427.161377,250.326859 424.554565,251.723206 
z"/>
<path fill="#262626" opacity="1.000000" stroke="none" 
	d="
M507.657227,224.027359 
	C507.886383,224.597504 507.765106,225.098343 507.440155,225.761993 
	C503.812378,223.659317 499.986359,221.817352 497.053436,219.034210 
	C491.994507,214.233673 486.720154,210.695068 479.235687,212.140549 
	C486.664886,208.573517 493.187347,210.372482 498.484009,216.406174 
	C501.012024,219.285934 504.340729,221.462799 507.657227,224.027359 
z"/>
<path fill="#262626" opacity="1.000000" stroke="none" 
	d="
M476.131500,251.184113 
	C475.261047,252.821960 474.576294,254.125610 473.718658,255.758392 
	C474.937561,255.964600 475.861725,256.120941 477.658386,256.424896 
	C474.769348,257.993011 473.074219,259.964600 470.780914,256.591827 
	C470.029541,255.486786 467.473175,255.609055 466.637024,256.612976 
	C468.713531,253.912491 470.711700,251.146347 472.898041,248.537888 
	C474.074097,247.134735 475.572906,246.002106 476.926086,244.747406 
	C477.408234,245.186996 477.890381,245.626587 478.372528,246.066177 
	C477.687408,247.660751 477.002319,249.255325 476.131500,251.184113 
z"/>
<path fill="#191918" opacity="1.000000" stroke="none" 
	d="
M450.099579,245.973633 
	C451.784363,245.899399 453.705139,245.323029 455.056610,245.958115 
	C455.755493,246.286530 455.946503,248.936981 455.498199,250.239288 
	C453.990265,254.619720 454.514038,257.652252 460.114624,258.276337 
	C455.271973,260.998718 452.170898,257.794525 448.093079,255.737915 
	C449.624390,252.807190 451.820038,250.076965 454.456940,246.798050 
	C452.486084,246.425156 451.292847,246.199402 450.099579,245.973633 
z"/>
<path fill="#171717" opacity="1.000000" stroke="none" 
	d="
M485.776978,253.968445 
	C485.730652,255.703094 485.816895,257.087097 485.947693,259.186890 
	C481.610779,261.965881 482.317322,254.400009 478.782196,253.846008 
	C481.867035,250.986298 484.796204,248.270905 487.725342,245.555496 
	C488.175018,245.918640 488.624664,246.281784 489.074341,246.644913 
	C488.019409,248.969208 486.964508,251.293518 485.776978,253.968445 
z"/>
<path fill="#202020" opacity="1.000000" stroke="none" 
	d="
M513.352905,257.354340 
	C514.027466,257.358795 514.702026,257.363220 515.705017,257.189331 
	C516.033447,257.010986 515.966309,256.941681 515.831726,257.224609 
	C515.792908,257.693176 515.888733,257.878784 515.984497,258.064392 
	C515.984497,258.064392 515.966858,257.986267 516.005676,257.977325 
	C513.738586,258.391052 511.432648,258.813721 509.126709,259.236359 
	C508.715485,258.806427 508.304260,258.376495 507.893066,257.946533 
	C510.149170,253.781891 512.405273,249.617233 514.661377,245.452576 
	C515.320740,245.777222 515.980042,246.101852 516.639343,246.426498 
	C515.205627,249.546661 513.771851,252.666824 512.171326,256.389771 
	C512.453979,257.113159 512.903442,257.233734 513.352905,257.354340 
z"/>
<path fill="#FBFBFB" opacity="1.000000" stroke="none" 
	d="
M344.891479,264.751465 
	C343.193695,273.303436 343.193695,273.303436 350.814850,281.830994 
	C350.519806,282.219971 350.224762,282.608917 349.929749,282.997894 
	C347.494781,280.996124 344.058472,279.454742 342.873810,276.878113 
	C341.331268,273.523132 338.781708,269.353973 343.125977,265.262329 
	C344.068939,264.920715 344.480194,264.836090 344.891479,264.751465 
z"/>
<path fill="#33332F" opacity="1.000000" stroke="none" 
	d="
M391.960754,253.011414 
	C393.817963,250.188828 395.675201,247.366226 397.532410,244.543640 
	C394.383087,242.580383 391.233734,240.617111 389.022278,239.238510 
	C393.127472,238.033875 398.106873,239.622696 399.564423,243.586517 
	C400.894409,247.203339 398.806000,250.601791 393.108887,253.086182 
	C392.312408,253.064346 392.136566,253.037888 391.960754,253.011414 
z"/>
<path fill="#262626" opacity="1.000000" stroke="none" 
	d="
M403.281006,196.655762 
	C407.179688,201.005325 407.117432,202.916183 402.657623,206.342834 
	C404.315704,201.094543 402.956451,197.630539 397.551514,196.373169 
	C397.765350,196.004990 397.979218,195.636795 398.193054,195.268616 
	C399.791718,195.666580 401.390411,196.064560 403.281006,196.655762 
z"/>
<path fill="#545454" opacity="1.000000" stroke="none" 
	d="
M344.935547,264.411011 
	C344.480194,264.836090 344.068939,264.920715 343.347198,264.949463 
	C343.696381,262.933990 343.833862,260.485382 345.119720,259.112091 
	C348.202148,255.820099 351.824249,253.033463 355.427124,249.948624 
	C355.625671,249.854385 355.774261,249.990662 355.774261,249.990662 
	C353.911346,252.146622 351.941223,254.220673 350.214508,256.480713 
	C348.350861,258.920013 346.714905,261.533234 344.935547,264.411011 
z"/>
<path fill="#DEDEDE" opacity="1.000000" stroke="none" 
	d="
M449.803162,245.987244 
	C451.292847,246.199402 452.486084,246.425156 454.456940,246.798050 
	C451.820038,250.076965 449.624390,252.807190 447.729126,255.809021 
	C448.029541,256.080597 448.010498,256.010742 447.732666,255.700104 
	C446.978119,255.738403 446.501373,256.087311 445.625793,256.345703 
	C446.162109,253.313675 447.097260,250.372192 448.032379,247.430710 
	C448.523804,246.954086 449.015259,246.477478 449.803162,245.987244 
z"/>
<path fill="#262626" opacity="1.000000" stroke="none" 
	d="
M447.702667,247.584381 
	C447.097260,250.372192 446.162109,253.313675 445.644531,256.455811 
	C446.062103,256.656464 445.969879,256.859924 445.969879,256.859924 
	C444.709534,257.331757 443.449219,257.803589 442.188873,258.275421 
	C442.175537,256.752319 441.598480,254.890137 442.267670,253.777542 
	C443.608978,251.547577 445.631592,249.727386 447.702667,247.584381 
z"/>
<path fill="#FBFBFB" opacity="1.000000" stroke="none" 
	d="
M353.243408,282.496521 
	C357.395844,282.130524 361.558838,282.130524 365.721802,282.130524 
	C361.624023,284.264221 357.498016,284.962311 353.243408,282.496521 
z"/>
<path fill="#FBFBFB" opacity="1.000000" stroke="none" 
	d="
M381.458069,277.944763 
	C379.502930,281.283234 376.240967,280.668762 373.566467,281.893066 
	C373.352631,281.234619 373.138824,280.576172 372.924988,279.917725 
	C375.564392,279.208893 378.203796,278.500092 381.166016,277.860046 
	C381.488831,277.928833 381.421478,277.967896 381.458069,277.944763 
z"/>
<path fill="#FBFBFB" opacity="1.000000" stroke="none" 
	d="
M356.158325,249.989258 
	C355.774261,249.990662 355.625671,249.854385 355.636963,249.755432 
	C357.363770,248.339462 359.079254,247.022461 360.794739,245.705475 
	C361.140869,246.231735 361.487000,246.758011 361.833130,247.284286 
	C360.069550,248.185486 358.306000,249.086670 356.158325,249.989258 
z"/>
<path fill="#F8F8F7" opacity="1.000000" stroke="none" 
	d="
M482.888123,295.882812 
	C484.323456,294.578247 485.758759,293.273651 487.601013,291.989136 
	C488.007996,292.009186 488.111176,292.114685 488.111176,292.114685 
	C486.654724,293.397461 485.198273,294.680237 483.358215,295.970886 
	C482.974640,295.978760 482.888123,295.882812 482.888123,295.882812 
z"/>
<path fill="#1F1F1F" opacity="1.000000" stroke="none" 
	d="
M387.068939,203.686432 
	C386.365051,203.682648 385.843231,203.400940 385.045776,203.009293 
	C385.440430,201.927094 386.110687,200.954849 386.780945,199.982590 
	C387.095612,200.120468 387.410278,200.258362 387.724945,200.396240 
	C387.566956,201.400330 387.408966,202.404419 387.068939,203.686432 
z"/>
<path fill="#FBFBFB" opacity="1.000000" stroke="none" 
	d="
M385.357971,254.438934 
	C385.812531,255.130295 385.944275,255.921661 386.076019,256.713043 
	C385.246796,256.525665 384.417572,256.338257 383.588348,256.150879 
	C384.070648,255.613571 384.552917,255.076248 385.357971,254.438934 
z"/>
<path fill="#F8F8F7" opacity="1.000000" stroke="none" 
	d="
M505.654022,279.066467 
	C505.932220,280.397522 505.850983,281.790314 505.514862,283.401917 
	C505.271515,282.123260 505.283081,280.625732 505.654022,279.066467 
z"/>
<path fill="#262626" opacity="1.000000" stroke="none" 
	d="
M401.614258,209.551147 
	C401.210754,209.998138 400.925781,210.335724 400.640778,210.673309 
	C400.357117,210.399872 400.073456,210.126434 399.789795,209.852997 
	C400.368683,209.668869 400.946167,209.480042 401.528839,209.308777 
	C401.579407,209.293900 401.664032,209.394699 401.614258,209.551147 
z"/>
<path fill="#FBFBFB" opacity="1.000000" stroke="none" 
	d="
M391.615845,253.012756 
	C392.136566,253.037888 392.312408,253.064346 392.746521,253.157288 
	C391.906555,254.041580 390.808228,254.859421 389.709930,255.677261 
	C389.450104,255.233322 389.190277,254.789368 388.930450,254.345413 
	C389.710602,253.901642 390.490784,253.457870 391.615845,253.012756 
z"/>
<path fill="#FBFBFB" opacity="1.000000" stroke="none" 
	d="
M380.982635,239.051376 
	C381.903717,238.661743 382.824799,238.272110 383.745880,237.882492 
	C383.925110,238.221695 384.104340,238.560883 384.283539,238.900085 
	C383.159058,239.515625 382.034576,240.131165 380.770264,240.449615 
	C380.747803,239.785461 380.865234,239.418427 380.982635,239.051376 
z"/>
<path fill="#F8F8F7" opacity="1.000000" stroke="none" 
	d="
M502.374329,281.566345 
	C501.774567,282.514008 500.958282,283.244873 500.141998,283.975739 
	C499.855225,283.561768 499.568451,283.147827 499.281647,282.733856 
	C500.240387,282.272430 501.199097,281.810974 502.374329,281.566345 
z"/>
<path fill="#1F1F1F" opacity="1.000000" stroke="none" 
	d="
M380.633972,239.024887 
	C380.865234,239.418427 380.747803,239.785461 380.416626,240.365677 
	C379.351807,240.706696 378.500793,240.834564 377.325256,240.931122 
	C377.000702,240.899811 376.997345,240.440186 376.995697,240.210388 
	C378.091125,239.653183 379.188202,239.325790 380.633972,239.024887 
z"/>
<path fill="#1F1F1F" opacity="1.000000" stroke="none" 
	d="
M385.957031,217.820816 
	C385.767151,217.297089 385.577301,216.773361 385.141266,216.101227 
	C385.691986,215.630295 386.488892,215.307755 387.642517,215.045471 
	C387.998993,215.791351 387.998779,216.476944 387.998718,217.505325 
	C387.829498,217.889893 387.660126,217.931671 386.984802,217.984634 
	C386.304871,217.937500 386.130920,217.879150 385.957031,217.820816 
z"/>
<path fill="#FBFBFB" opacity="1.000000" stroke="none" 
	d="
M369.454346,282.842133 
	C369.312592,282.064453 369.474792,281.299805 369.637024,280.535156 
	C370.013611,280.700104 370.390167,280.865051 370.766724,281.029968 
	C370.430573,281.638397 370.094452,282.246796 369.454346,282.842133 
z"/>
<path fill="#F8F8F7" opacity="1.000000" stroke="none" 
	d="
M487.955811,291.957031 
	C488.245544,291.414978 488.587524,290.925110 488.929504,290.435242 
	C489.141449,290.620453 489.353394,290.805634 489.565338,290.990845 
	C489.263885,291.320770 488.962433,291.650696 488.386047,292.047668 
	C488.111176,292.114685 488.007996,292.009186 487.955811,291.957031 
z"/>
<path fill="#F8F8F7" opacity="1.000000" stroke="none" 
	d="
M497.380371,285.467957 
	C496.933411,285.351929 496.659180,285.070770 496.406677,284.771362 
	C496.399628,284.763000 496.624390,284.559082 496.741089,284.446350 
	C497.012787,284.731018 497.284454,285.015656 497.380371,285.467957 
z"/>
<path fill="#F8F8F7" opacity="1.000000" stroke="none" 
	d="
M493.113251,287.732452 
	C493.214325,287.261200 493.357483,287.014801 493.500610,286.768372 
	C493.643219,287.014526 493.957336,287.341217 493.888367,287.488007 
	C493.784027,287.710205 493.413055,287.807159 493.113251,287.732452 
z"/>
<path fill="#1F1F1F" opacity="1.000000" stroke="none" 
	d="
M438.858124,256.715576 
	C438.765411,256.252106 438.638092,256.006744 438.510742,255.761383 
	C438.378662,256.004944 438.101288,256.289001 438.154724,256.480865 
	C438.209808,256.678589 438.587128,256.786499 438.858124,256.715576 
z"/>
<path fill="#FBFBFB" opacity="1.000000" stroke="none" 
	d="
M385.905701,217.915985 
	C386.130920,217.879150 386.304871,217.937500 386.740936,218.079620 
	C386.629700,218.342407 386.256348,218.521408 385.818176,218.451385 
	C385.753357,218.202332 385.854370,218.011154 385.905701,217.915985 
z"/>
<path fill="#F8F8F7" opacity="1.000000" stroke="none" 
	d="
M483.014709,296.029419 
	C482.595673,296.195404 482.136505,296.310730 481.677368,296.426056 
	C481.928009,296.274902 482.178650,296.123749 482.658691,295.927704 
	C482.888123,295.882812 482.974640,295.978760 483.014709,296.029419 
z"/>
<path fill="#FBFBFB" opacity="1.000000" stroke="none" 
	d="
M365.361389,245.242691 
	C365.375916,245.006943 365.503998,244.878418 365.632111,244.749893 
	C365.579742,244.949905 365.527344,245.149918 365.361389,245.242691 
z"/>
<path fill="#191918" opacity="1.000000" stroke="none" 
	d="
M446.276489,256.906219 
	C445.969879,256.859924 446.062103,256.656464 446.043396,256.546356 
	C446.501373,256.087311 446.978119,255.738403 447.768311,255.706360 
	C447.582245,256.332977 447.082672,256.642731 446.276489,256.906219 
z"/>
<path fill="#202020" opacity="1.000000" stroke="none" 
	d="
M516.711548,256.123413 
	C517.055298,256.181305 517.080322,256.450684 516.813232,256.719543 
	C516.352844,256.972809 516.159546,256.957245 515.966309,256.941681 
	C515.966309,256.941681 516.033447,257.010986 516.073242,257.038391 
	C516.197937,256.732330 516.282898,256.398926 516.711548,256.123413 
z"/>
<path fill="#202020" opacity="1.000000" stroke="none" 
	d="
M375.160706,243.865936 
	C375.265106,244.055756 375.134674,244.498077 374.755676,244.803360 
	C374.646729,244.483688 374.786316,244.301071 375.160706,243.865936 
z"/>
<path fill="#262626" opacity="1.000000" stroke="none" 
	d="
M478.493469,213.494263 
	C478.512482,213.495010 478.474487,213.493530 478.493469,213.494263 
z"/>
<path fill="#FEFEFE" opacity="1.000000" stroke="none" 
	d="
M515.831726,257.224609 
	C516.159546,256.957245 516.352844,256.972809 516.804504,256.854553 
	C516.986877,257.267242 516.910889,257.813782 516.409729,258.212341 
	C515.888733,257.878784 515.792908,257.693176 515.831726,257.224609 
z"/>
<path fill="#FEFEFE" opacity="1.000000" stroke="none" 
	d="
M513.091919,257.126099 
	C512.903442,257.233734 512.453979,257.113159 512.132568,256.748108 
	C512.450806,256.635071 512.640930,256.766479 513.091919,257.126099 
z"/>
</svg>